<svg width="620" height="562" viewBox="0 0 620 562" fill="none" xmlns="http://www.w3.org/2000/svg">
<path fill-rule="evenodd" clip-rule="evenodd" d="M550.009 175.72C583.086 236.024 587.836 308.593 565.844 373.811C545.429 434.353 495.482 478.327 438.444 506.581C386.283 532.42 328.992 525.794 271.15 519.791C197.912 512.19 109.27 527.018 65.0561 467.83C19.6467 407.042 47.8572 321.613 68.4731 248.471C88.2536 178.293 115.788 107.089 177.532 68.7833C239.918 30.0785 317.777 29.8309 388.268 50.0687C456.377 69.6222 515.806 113.364 550.009 175.72Z" fill="#FFB5A7"/>
<path fill-rule="evenodd" clip-rule="evenodd" d="M313.661 81.4813C351.142 83.1595 388.977 83.0672 422.884 99.25C458.328 116.167 488.627 142.549 510.429 175.395C533.069 209.506 544.541 249.113 549.396 289.855C554.687 334.255 555.675 370.887 526.389 404.49C495.906 439.47 450.337 436.439 407.177 453.05C372.822 466.271 349.828 501.668 313.661 508.375C274.67 515.606 234.604 506.971 197.905 491.859C157.876 475.377 114.034 456.256 93.7011 417.805C73.4477 379.504 80.3621 331.887 91.0864 289.855C100.49 253.001 132.602 228.456 150.556 194.977C169.171 160.264 166.461 111.634 198.685 89.2117C230.838 66.838 274.623 79.7333 313.661 81.4813Z" fill="#F6E7E5"/>
<path fill-rule="evenodd" clip-rule="evenodd" d="M303.643 87.6278C354.018 87.5829 363.431 162.167 399.75 197.252C437.646 233.861 518.777 241.042 517.107 293.844C515.425 347.014 436.294 352.731 393.827 384.483C362.32 408.041 342.8 450.472 303.643 453.452C262.881 456.553 229.464 426.366 198.685 399.331C164.759 369.531 119.91 339.083 121.932 293.844C123.932 249.071 178.142 230.978 207.707 197.425C241.109 159.519 253.261 87.6734 303.643 87.6278Z" fill="#FCD5CE"/>
<path d="M379.089 226.399C380.004 223.031 380.92 218.745 379.801 218.643C378.682 218.54 375.324 222.929 373.289 225.889L337.167 222.929L324.042 197.721L304.607 221.194C304.607 221.194 308.881 241.912 310 242.014C311.119 242.116 384.583 238.85 384.583 238.85V226.909L379.089 226.399Z" fill="#000001"/>
<path d="M387.025 163.837C387.025 163.837 357.619 304.575 364.03 300.799C370.44 297.023 441.36 195.271 441.258 189.25C441.156 183.228 387.025 163.837 387.025 163.837Z" fill="#FEC89A"/>
<path d="M388.857 137.71C388.857 137.71 390.586 110.563 416.533 108.624C442.479 106.685 477.481 133.016 454.893 166.083C454.893 166.083 462.015 167.307 457.538 175.778C457.538 175.778 474.531 175.88 466.492 184.147C458.454 192.414 441.258 189.352 441.258 189.352C441.258 189.352 390.688 167.818 386.313 165.776C381.938 163.735 369.829 150.774 375.222 138.221C380.615 125.668 388.857 137.71 388.857 137.71Z" fill="#AAF683"/>
<path d="M404.276 170.115L381.314 189.663L381.972 190.442L404.934 170.894L404.276 170.115Z" fill="white"/>
<path d="M411.719 176.288L379.142 200.757L379.752 201.574L412.328 177.105L411.719 176.288Z" fill="white"/>
<path d="M384.757 176.156L383.997 176.835L422.475 220.225L423.235 219.547L384.757 176.156Z" fill="white"/>
<path d="M416.838 228.644L382.039 186.698L382.853 185.984L417.652 227.93L416.838 228.644Z" fill="white"/>
<path d="M400.703 251.569L367.751 262.135L368.061 263.107L401.013 252.541L400.703 251.569Z" fill="white"/>
<path d="M392.8 262.731L366.305 270.759L366.6 271.736L393.094 263.708L392.8 262.731Z" fill="white"/>
<path d="M373.798 145.161C374.001 142.711 374.612 140.262 375.426 137.915C375.833 136.69 376.545 135.669 377.359 134.649C378.173 133.628 379.394 132.914 380.615 132.71C381.938 132.608 383.26 132.812 384.38 133.322C385.499 133.832 386.618 134.547 387.636 135.261C389.671 136.792 391.4 138.731 392.723 140.874C394.046 143.119 394.86 145.671 394.86 148.222C394.86 148.937 394.758 149.651 394.453 150.264C394.249 150.672 394.046 151.08 393.639 151.284C393.13 151.488 392.621 151.488 392.214 151.182C391.502 150.672 391.095 149.957 391.095 149.141C390.993 148.427 391.095 147.814 391.197 147.1C391.706 144.548 392.825 142.099 394.555 140.16C396.285 138.119 398.625 136.69 401.27 136.18C402.593 135.873 403.916 135.771 405.239 135.975C405.849 135.975 406.561 136.077 407.172 136.18C409.207 136.588 411.038 137.71 412.361 139.343C413.175 140.466 413.786 141.589 414.193 142.915C414.905 145.467 415.21 148.018 415.007 150.672C414.905 153.223 414.396 155.775 413.48 158.224C413.277 158.836 412.972 159.449 412.666 160.061C412.259 160.776 411.751 161.388 411.14 161.796C410.937 162 410.631 162 410.326 162.102C410.021 162.102 409.614 162.102 409.309 161.898C408.902 161.694 408.495 161.286 408.291 160.878C407.884 160.163 407.782 159.347 407.782 158.53C407.986 157.101 408.698 155.775 409.817 154.754C410.733 153.836 411.751 152.917 412.87 152.305C415.108 150.876 417.449 149.855 419.992 149.243C422.536 148.529 425.182 148.324 427.827 148.733C429.15 148.937 430.473 149.447 431.694 150.161C432.915 150.876 433.83 151.896 434.644 153.019C437.799 157.408 438.613 163.021 436.985 168.124C436.781 168.736 436.476 169.348 436.171 169.961C435.865 170.675 435.357 171.185 434.746 171.696C434.339 172.002 433.932 172.206 433.423 172.308C432.813 172.308 432.304 172.104 431.897 171.696C431.49 171.288 431.287 170.675 431.388 170.165C431.388 169.655 431.592 169.246 431.795 168.838C432.202 168.226 432.711 167.715 433.322 167.205C433.83 166.797 434.339 166.389 434.95 166.083C436.069 165.47 437.188 164.858 438.409 164.45C440.749 163.531 443.293 162.919 445.837 162.613C447.16 162.511 448.483 162.511 449.704 162.613C451.128 162.715 452.451 163.225 453.57 163.939C455.707 165.674 457.131 168.124 457.335 170.879C457.538 172.206 457.437 173.533 457.233 174.86C457.03 176.186 456.317 177.513 455.3 178.534C454.791 179.044 454.181 179.452 453.468 179.656C452.756 179.86 452.044 179.86 451.332 179.758C451.026 179.758 450.619 179.656 450.314 179.554C450.111 179.452 449.907 179.35 449.704 179.248C449.398 179.044 449.195 178.738 449.195 178.33C449.195 178.023 449.297 177.717 449.5 177.513C449.602 177.309 449.805 177.207 449.907 177.105C450.212 176.901 450.518 176.697 450.823 176.492C453.163 175.37 455.605 174.655 458.149 174.451C460.693 174.043 463.338 174.349 465.78 175.268C467.001 175.778 468.12 176.697 468.731 177.921C469.341 179.146 469.647 180.473 469.545 181.8C469.443 183.126 468.934 184.351 468.12 185.372C467.306 186.392 466.187 187.107 465.068 187.719C462.829 188.739 460.387 189.454 457.844 189.76C455.402 190.066 452.858 190.168 450.416 190.066C452.858 190.066 455.402 189.862 457.844 189.454C460.286 189.148 462.626 188.331 464.864 187.311C465.984 186.8 466.899 185.984 467.612 185.065C468.324 184.147 468.731 183.024 468.731 181.8C468.833 180.677 468.527 179.452 467.917 178.432C467.306 177.411 466.391 176.697 465.271 176.288C463.033 175.472 460.591 175.268 458.251 175.676C455.91 175.982 453.57 176.595 451.332 177.717C451.128 177.819 450.823 178.023 450.619 178.125C450.416 178.227 450.314 178.534 450.416 178.33C450.518 178.125 450.314 178.125 450.416 178.227C450.518 178.227 450.619 178.33 450.619 178.33C451.84 178.738 453.265 178.432 454.282 177.513C454.995 176.697 455.503 175.676 455.707 174.553C455.91 173.431 455.91 172.206 455.707 171.083C455.402 168.838 454.282 166.695 452.451 165.368C450.721 164.143 448.177 164.143 445.837 164.246C443.497 164.45 441.055 165.062 438.918 165.981C437.799 166.389 436.781 166.899 435.764 167.511C434.746 168.022 433.932 168.736 433.22 169.655C433.118 169.757 433.118 169.961 433.016 170.063C433.016 170.165 433.016 170.165 433.118 170.267C433.22 170.369 433.22 170.267 433.22 170.369C433.22 170.471 433.322 170.369 433.525 170.165C434.237 169.45 434.848 168.43 435.051 167.409C436.476 162.919 435.662 157.918 432.915 154.04C432.304 153.121 431.49 152.305 430.574 151.794C429.557 151.182 428.539 150.876 427.42 150.672C425.08 150.264 422.74 150.468 420.501 151.08C418.161 151.692 416.024 152.611 413.989 153.938C412.972 154.55 412.056 155.264 411.242 156.081C410.53 156.795 409.919 157.714 409.716 158.734C409.716 159.143 409.716 159.551 409.919 159.959C410.021 160.061 410.021 160.163 410.123 160.265C410.428 159.959 410.733 159.653 410.937 159.245C411.242 158.734 411.445 158.122 411.649 157.51C412.463 155.264 412.972 152.917 413.073 150.468C413.277 148.12 413.073 145.671 412.361 143.426C411.751 141.18 410.326 139.343 408.291 138.323C407.274 137.812 406.154 137.608 404.933 137.506C403.814 137.404 402.593 137.404 401.474 137.71C396.895 138.527 393.232 142.813 392.316 147.406C392.214 147.916 392.214 148.529 392.214 149.141C392.214 149.549 392.418 149.957 392.723 150.264C392.927 150.366 392.927 150.366 393.028 150.366C393.13 150.264 393.232 150.161 393.334 149.957C393.537 149.447 393.639 148.937 393.639 148.324C393.639 145.875 392.927 143.528 391.706 141.487C390.485 139.343 388.958 137.506 387.025 135.975C386.109 135.159 385.092 134.547 383.973 134.036C382.955 133.526 381.734 133.22 380.513 133.322C379.292 133.526 378.275 134.138 377.461 135.057C376.647 135.975 376.036 136.996 375.527 138.119C374.815 140.262 374.103 142.609 373.798 145.161Z" fill="white"/>
<path d="M410.123 80.5579C410.123 80.5579 411.852 53.4104 437.799 51.4713C463.745 49.5322 498.747 75.8632 476.159 108.93C476.159 108.93 483.281 110.155 478.804 118.626C478.804 118.626 495.796 118.728 487.86 126.994C479.923 135.261 462.728 132.199 462.728 132.199C462.728 132.199 411.954 110.563 407.579 108.42C403.203 106.277 391.197 93.5193 396.488 80.9661C401.779 68.413 410.123 80.5579 410.123 80.5579Z" fill="#FFD97D"/>
<path d="M395.165 88.0081C395.369 85.5587 395.877 83.0073 396.793 80.762C397.2 79.5373 397.912 78.5167 398.726 77.4961C399.54 76.4755 400.761 75.7611 401.982 75.557C403.305 75.455 404.628 75.6591 405.747 76.1694C406.866 76.6797 407.986 77.3941 409.003 78.1085C411.038 79.6393 412.768 81.5785 414.091 83.7217C415.414 85.967 416.228 88.5184 416.228 91.0699C416.228 91.7843 416.126 92.4987 415.821 93.111C415.617 93.5193 415.414 93.9275 415.007 94.1316C414.6 94.3357 413.989 94.3357 413.582 94.1316C412.87 93.6213 412.463 92.9069 412.463 92.0904C412.361 91.376 412.463 90.7637 412.565 90.0493C412.972 87.3958 414.193 84.9464 415.922 83.0073C417.652 80.9661 419.992 79.5373 422.638 79.027C423.961 78.7208 425.283 78.6188 426.606 78.7208C427.217 78.7208 427.929 78.8229 428.539 78.9249C429.252 79.027 429.862 79.2311 430.473 79.5373C431.694 80.1496 432.813 80.9661 433.627 82.0887C434.441 83.2114 435.051 84.334 435.458 85.6608C436.171 88.2122 436.476 90.7637 436.272 93.4172C436.171 95.9686 435.662 98.5201 434.746 100.969C434.543 101.582 434.237 102.194 433.932 102.807C433.525 103.521 433.016 104.133 432.406 104.542C432.202 104.746 431.897 104.746 431.592 104.848C431.287 104.848 430.88 104.848 430.574 104.644C430.167 104.439 429.76 104.031 429.557 103.623C429.15 102.909 429.048 102.092 429.048 101.276C429.353 99.8469 429.964 98.5201 431.083 97.4995C431.999 96.581 433.016 95.6625 434.136 94.9481C436.374 93.5193 438.714 92.4987 441.258 91.8863C443.802 91.1719 446.447 90.9678 449.093 91.376C450.416 91.5801 451.738 92.0904 452.959 92.8048C454.18 93.5192 455.096 94.5398 455.91 95.6625C459.064 100.051 459.879 105.664 458.25 110.767C458.047 111.379 457.742 111.992 457.436 112.604C457.131 113.319 456.623 113.829 456.012 114.339C455.605 114.645 455.198 114.849 454.689 114.951C454.079 114.951 453.57 114.747 453.163 114.237C452.756 113.829 452.552 113.216 452.654 112.706C452.654 112.196 452.858 111.788 453.163 111.379C453.57 110.767 454.079 110.155 454.689 109.746C455.198 109.338 455.707 108.93 456.317 108.624C457.437 108.011 458.556 107.399 459.777 106.889C462.117 105.97 464.661 105.358 467.205 105.052C468.527 104.95 469.85 104.95 471.071 105.052C472.496 105.154 473.818 105.664 474.938 106.481C477.074 108.216 478.397 110.665 478.702 113.421C478.906 114.747 478.804 116.074 478.601 117.401C478.397 118.83 477.685 120.054 476.667 121.075C476.159 121.585 475.548 121.993 474.836 122.198C474.124 122.402 473.411 122.504 472.699 122.402C472.394 122.402 471.987 122.3 471.682 122.198C471.478 122.096 471.275 121.993 471.071 121.891C470.766 121.687 470.562 121.381 470.562 120.973C470.562 120.667 470.664 120.361 470.868 120.156C470.969 119.952 471.173 119.85 471.275 119.748C471.58 119.544 471.885 119.34 472.19 119.136C474.531 118.013 476.973 117.299 479.516 117.095C482.06 116.686 484.706 116.993 487.148 117.911C488.369 118.421 489.488 119.34 490.098 120.565C490.709 121.789 491.014 123.116 490.912 124.443C490.811 125.77 490.302 126.994 489.488 128.015C488.674 129.035 487.555 129.75 486.435 130.362C484.197 131.383 481.755 132.097 479.211 132.403C476.769 132.71 474.225 132.812 471.783 132.71C474.225 132.71 476.769 132.505 479.211 132.097C481.653 131.791 483.993 130.975 486.232 129.954C487.351 129.444 488.267 128.627 488.979 127.709C489.691 126.79 490.098 125.668 490.098 124.443C490.2 123.32 489.895 122.096 489.284 121.075C488.674 120.054 487.758 119.34 486.639 118.932C484.4 118.115 481.958 117.911 479.618 118.319C477.278 118.626 474.938 119.238 472.699 120.361C472.496 120.463 472.19 120.667 471.987 120.769C471.783 120.871 471.682 121.177 471.783 120.973C471.885 120.769 471.682 120.769 471.783 120.871L471.987 120.973C473.208 121.381 474.632 121.075 475.65 120.156C476.362 119.34 476.871 118.319 477.074 117.197C477.278 116.074 477.278 114.849 477.074 113.727C476.769 111.379 475.65 109.338 473.818 107.909C472.089 106.685 469.545 106.685 467.205 106.787C464.864 106.991 462.422 107.603 460.286 108.522C459.166 108.93 458.149 109.44 457.131 110.053C456.216 110.563 455.3 111.277 454.689 112.196C454.587 112.298 454.486 112.502 454.486 112.604C454.486 112.706 454.486 112.706 454.588 112.808C454.689 112.91 454.689 112.808 454.689 112.91C454.791 112.91 454.893 112.808 454.994 112.706C455.707 111.89 456.317 110.971 456.521 109.951C457.945 105.46 457.131 100.459 454.384 96.581C453.773 95.6625 452.959 94.846 452.044 94.3357C451.026 93.7234 450.009 93.4172 448.889 93.2131C446.549 92.8048 444.209 93.009 441.97 93.6213C439.63 94.2337 437.493 95.1522 435.458 96.4789C434.441 97.0913 433.525 97.8057 432.711 98.6222C431.999 99.3366 431.49 100.255 431.287 101.276C431.287 101.684 431.287 102.092 431.49 102.5C431.592 102.602 431.592 102.704 431.694 102.807C432.101 102.5 432.304 102.194 432.508 101.786C432.813 101.276 433.016 100.765 433.22 100.255C434.034 98.0098 434.543 95.6625 434.644 93.2131C434.848 90.8657 434.644 88.4163 433.932 86.1711C433.322 83.9258 431.897 82.0887 429.862 81.0682C428.845 80.5579 427.725 80.3538 426.504 80.2517C425.385 80.1496 424.164 80.1496 423.045 80.4558C418.466 81.2723 414.803 85.5587 413.887 90.1513C413.786 90.6616 413.684 91.1719 413.786 91.7843C413.786 92.1925 413.989 92.6007 414.294 92.9069C414.498 93.009 414.498 93.009 414.6 93.009C414.701 92.9069 414.803 92.8048 414.905 92.6007C415.108 92.0904 415.21 91.5801 415.21 90.9678C415.21 88.5184 414.498 86.1711 413.277 84.1299C412.056 81.9867 410.529 80.1496 408.596 78.6188C407.68 77.8023 406.663 77.1899 405.544 76.6797C404.526 76.1694 403.305 75.8632 402.084 75.9653C400.863 76.1694 399.846 76.7817 399.032 77.7002C398.218 78.6188 397.607 79.6393 397.098 80.762C396.081 83.0073 395.47 85.4567 395.165 88.0081Z" fill="white"/>
<path d="M457.64 63.7183C457.64 63.7183 449.297 68.9232 451.535 70.4541C453.774 71.985 461.914 60.5545 457.64 63.7183Z" fill="#EE6055"/>
<path d="M434.95 62.9018C434.95 62.9018 437.799 73.6179 440.037 70.5562C442.276 67.4944 433.016 57.3907 434.95 62.9018Z" fill="#EE6055"/>
<path d="M464.661 76.0673C464.661 76.0673 459.37 80.5579 462.117 80.5579C464.864 80.5579 467.103 73.6179 464.661 76.0673Z" fill="#EE6055"/>
<path d="M316.41 135.873C322.007 136.69 341.848 139.343 341.848 139.343C341.848 139.343 339.406 120.156 331.062 118.523C322.719 116.891 316.41 135.873 316.41 135.873Z" fill="#000001"/>
<path d="M315.698 175.37C316.512 176.288 317.937 176.39 318.852 175.472C319.361 175.064 319.565 174.349 319.565 173.737C319.158 164.654 317.224 137.71 322.719 137.302C332.996 136.486 339.101 123.626 339.101 123.626C339.101 123.626 347.851 121.177 348.055 119.238C348.258 117.299 341.543 113.114 337.371 108.216C333.199 103.317 330.452 96.8872 324.957 97.8057C319.463 98.7242 325.466 106.277 321.396 112.502C318.954 116.278 314.07 115.768 314.07 115.768C314.07 115.768 313.358 109.236 306.54 113.523C299.723 117.809 309.898 125.463 309.084 127.096C307.456 130.566 303.895 154.55 302.572 158.939C302.165 159.755 311.424 170.777 315.698 175.37Z" fill="#A04040"/>
<path d="M324.245 112.196C324.754 111.89 325.364 111.686 325.975 111.686C326.585 111.686 327.196 111.788 327.806 111.992C328.417 112.196 328.926 112.604 329.333 113.114C329.74 113.625 329.943 114.135 330.045 114.747C329.536 114.339 329.231 113.931 328.722 113.625C328.315 113.319 327.908 113.012 327.399 112.91C326.382 112.502 325.364 112.298 324.245 112.196Z" fill="#000001"/>
<path d="M323.431 114.849C323.329 114.645 323.228 114.441 323.329 114.237C323.329 114.033 323.431 113.931 323.635 113.727C323.94 113.523 324.347 113.421 324.754 113.625C324.754 113.829 324.652 114.033 324.55 114.135C324.449 114.237 324.449 114.339 324.347 114.441C324.245 114.543 324.143 114.543 324.042 114.645C323.736 114.645 323.635 114.747 323.431 114.849Z" fill="#000001"/>
<path d="M325.771 115.768C325.568 115.462 325.568 114.951 325.771 114.645C325.873 114.441 326.077 114.339 326.28 114.339C326.484 114.237 326.789 114.339 326.891 114.441C326.789 114.747 326.687 115.054 326.585 115.36C326.382 115.564 326.077 115.666 325.771 115.768Z" fill="#000001"/>
<path d="M326.484 127.913C327.298 127.096 328.62 126.892 329.638 127.607C331.266 128.831 327.908 132.812 325.263 131.893C322.617 130.975 326.484 127.913 326.484 127.913Z" fill="#EA8383"/>
<path d="M326.382 125.361C326.484 126.076 326.585 126.688 326.789 127.403C326.992 128.015 327.298 128.525 327.705 129.035C328.112 129.546 328.62 129.954 329.129 130.26C329.434 130.464 329.74 130.566 330.045 130.77C330.35 130.975 330.655 131.077 330.961 131.281C330.554 131.281 330.248 131.281 329.841 131.281C329.434 131.179 329.129 131.077 328.722 130.975C328.01 130.668 327.298 130.26 326.789 129.648C325.873 128.423 325.67 126.79 326.382 125.361Z" fill="#000001"/>
<path d="M325.059 109.338C325.568 108.216 326.687 107.501 327.908 107.399C328.519 107.297 329.129 107.399 329.74 107.603C330.248 107.807 330.757 108.216 331.164 108.624C330.554 108.522 330.045 108.42 329.536 108.42C329.027 108.318 328.519 108.318 328.01 108.42C327.501 108.42 326.992 108.522 326.585 108.726C326.077 108.93 325.568 109.134 325.059 109.338Z" fill="#000001"/>
<path d="M329.434 97.4995C329.434 97.4995 323.533 116.176 310.611 121.687C310.611 121.687 320.989 129.24 318.242 135.567C315.495 141.895 326.28 145.263 325.059 150.366L268.282 137.404C268.282 137.404 275.507 121.993 286.597 123.422C297.688 124.851 285.173 110.257 298.807 100.357C312.442 90.4575 329.434 97.4995 329.434 97.4995Z" fill="#EE6055"/>
<path d="M264.416 136.486C265.739 133.73 267.57 131.281 269.707 129.138C271.945 126.892 274.489 125.157 277.44 124.035C280.391 122.912 283.647 122.606 286.699 123.32C289.752 124.035 292.499 125.565 294.737 127.709C292.194 126.28 289.345 125.361 286.496 124.851C285.071 124.647 283.647 124.647 282.324 124.851C280.899 125.055 279.577 125.361 278.254 125.872C275.608 126.892 273.065 128.423 270.826 130.26C268.486 132.199 266.349 134.24 264.416 136.486Z" fill="#EE6055"/>
<path d="M329.434 97.4995C328.722 101.174 327.399 104.644 325.67 108.012C323.94 111.379 321.701 114.441 319.056 117.095C317.631 118.421 316.105 119.544 314.477 120.463C312.747 121.381 310.916 122.096 309.084 122.402C305.319 123.116 301.453 122.504 297.993 120.871C301.555 121.687 305.116 121.687 308.677 120.871C312.035 119.85 315.189 118.013 317.631 115.564C320.175 113.012 322.414 110.257 324.347 107.195C326.178 104.133 327.908 100.867 329.434 97.4995Z" fill="#000001"/>
<path d="M319.056 149.039L304.607 148.529L305.218 145.875L319.056 149.039Z" fill="#000001"/>
<path d="M198.074 310.699C198.074 310.699 189.833 300.289 190.85 293.859C191.868 287.43 194.208 287.532 194.411 284.062C194.615 280.592 190.748 278.04 190.748 278.04C190.748 278.04 182.303 285.593 183.524 278.04C184.745 270.488 186.475 268.243 183.422 263.14C180.37 258.037 174.672 250.485 173.756 253.036C172.84 255.588 178.844 262.834 175.995 271.713C173.146 280.592 183.524 328.457 188.001 330.906C192.478 333.356 198.074 310.699 198.074 310.699Z" fill="#000001"/>
<path d="M329.943 460.826C329.943 460.826 320.786 478.38 318.14 478.585L322.719 484.3C322.719 484.3 328.722 478.891 327.806 485.729C326.891 492.566 329.841 495.73 331.775 503.487C333.403 509.916 334.725 510.529 337.269 510.529C339.813 510.529 351.616 511.447 349.072 508.692C346.528 505.936 339.609 507.365 339.609 503.691C339.609 500.017 338.694 473.584 343.272 472.155C347.851 470.726 329.943 460.826 329.943 460.826Z" fill="#000001"/>
<path d="M371.152 348.46C367.794 327.743 282.527 229.257 282.527 229.257C282.527 229.257 245.592 256.302 250.272 282.225C254.953 308.147 255.563 366.525 255.563 366.525C255.563 366.525 212.218 324.171 200.618 297.942C200.618 297.942 178.945 328.457 178.945 361.83C178.945 361.83 182.608 371.934 201.636 369.791C220.663 367.647 217.509 404.286 233.28 401.633C249.051 398.979 247.016 419.595 266.553 418.064C282.629 416.737 294.432 352.441 297.485 311.107C308.169 320.701 328.722 339.888 341.95 356.013C341.95 356.013 321.294 394.182 326.28 409.287C331.266 424.392 310.102 421.738 318.445 434.904C326.789 448.069 316.207 453.58 316.207 453.58L354.16 487.259C354.363 486.953 374.51 369.178 371.152 348.46Z" fill="#87CCDB"/>
<path d="M316.919 267.12C316.919 267.12 312.137 223.337 323.228 218.745C340.016 211.703 335.336 198.639 319.259 162.408C299.418 117.605 256.784 238.544 256.784 238.544C256.784 238.544 285.58 251.607 316.919 267.12Z" fill="#F2EBEB"/>
<path d="M272.454 203.436C277.135 204.865 281.205 207.62 284.359 211.294C285.987 213.131 287.31 215.173 288.327 217.418C289.345 219.663 290.159 222.01 290.667 224.358C291.583 229.154 291.685 234.053 290.871 238.85C290.057 243.545 288.734 248.239 286.801 252.526C287.92 247.933 288.734 243.341 289.243 238.646C289.446 236.299 289.548 233.951 289.446 231.706C289.446 230.583 289.345 229.359 289.243 228.236C289.141 227.113 288.938 225.991 288.632 224.868C286.801 215.479 280.798 207.62 272.454 203.436Z" fill="white"/>
<path d="M292.092 170.471C292.194 174.145 292.397 177.717 292.804 181.289C293.008 183.126 293.211 184.861 293.415 186.596C293.516 187.515 293.618 188.433 293.72 189.352C293.822 190.27 293.923 191.189 293.923 192.107C293.008 190.474 292.295 188.739 291.787 187.004C291.278 185.167 290.871 183.432 290.667 181.493C290.464 179.656 290.464 177.717 290.667 175.88C290.871 174.043 291.38 172.206 292.092 170.471Z" fill="white"/>
<path d="M304.607 203.436C303.997 205.171 303.59 206.906 303.386 208.743C303.183 210.58 303.183 212.315 303.284 214.152C303.59 217.724 304.404 221.296 305.625 224.664C306.235 226.399 306.846 228.032 307.66 229.665C308.372 231.298 309.288 232.931 310.102 234.564C311.933 237.727 313.867 240.891 315.902 243.953C313.154 241.401 310.814 238.544 308.779 235.38C306.744 232.216 305.014 228.95 303.692 225.378C302.369 221.806 301.656 218.03 301.656 214.254C301.656 212.315 301.962 210.478 302.47 208.641C302.877 206.804 303.59 205.069 304.607 203.436Z" fill="white"/>
<path d="M404.831 196.394C404.831 196.394 410.631 190.781 410.53 189.556C410.428 188.331 399.642 192.311 399.642 192.311L404.831 196.394Z" fill="#000001"/>
<path d="M158.9 333.254C159.613 331.008 160.427 328.763 161.444 326.62C162.36 324.477 163.479 322.334 164.497 320.292C165.514 318.251 166.735 316.108 167.956 314.169C169.177 312.128 170.5 310.189 171.924 308.249C171.212 310.495 170.398 312.74 169.381 314.883C168.465 317.026 167.346 319.17 166.328 321.211C165.311 323.252 164.09 325.395 162.869 327.334C161.648 329.376 160.325 331.315 158.9 333.254Z" fill="#EE6055"/>
<path d="M160.121 316.006C160.528 314.373 161.037 312.638 161.749 311.107C162.36 309.474 163.072 307.943 163.886 306.412C164.7 304.882 165.514 303.453 166.43 301.922C167.346 300.493 168.363 299.064 169.483 297.738C169.076 299.37 168.567 301.105 167.854 302.636C167.244 304.269 166.532 305.8 165.718 307.331C164.904 308.862 164.09 310.291 163.174 311.822C162.258 313.25 161.241 314.679 160.121 316.006Z" fill="#EE6055"/>
<path d="M435.764 147.916C435.56 147.202 435.56 146.487 435.662 145.671C435.764 144.957 435.865 144.344 436.069 143.63C436.272 142.915 436.578 142.303 436.883 141.691C437.188 141.078 437.697 140.466 438.307 139.956C438.511 140.67 438.511 141.487 438.409 142.201C438.307 142.915 438.206 143.528 438.002 144.242C437.799 144.957 437.493 145.569 437.188 146.181C436.781 146.794 436.272 147.406 435.764 147.916Z" fill="#60D394"/>
<path d="M440.444 151.794C441.055 151.08 441.665 150.57 442.377 150.059C443.09 149.549 443.802 149.141 444.616 148.835C445.43 148.529 446.142 148.222 446.956 148.018C447.77 147.814 448.686 147.712 449.602 147.712C448.991 148.427 448.381 148.937 447.669 149.447C446.244 150.366 444.718 151.08 443.09 151.488C442.276 151.794 441.36 151.794 440.444 151.794Z" fill="#60D394"/>
<path d="M400.151 192.107C397.709 192.005 381.632 200.17 381.632 200.17L338.897 222.827L316.41 178.738L293.923 192.107C293.923 192.107 328.01 250.893 338.388 251.505C348.767 252.118 396.183 207.518 396.183 207.518C396.183 207.518 403.61 213.029 406.663 214.458C409.716 215.887 410.021 214.866 410.021 214.866C413.48 214.764 412.972 213.54 412.972 213.54C412.972 213.54 416.228 213.744 416.431 212.519C416.635 211.294 406.256 201.701 406.256 201.701C406.256 201.701 418.466 204.661 418.466 203.436C418.466 202.211 402.593 192.209 400.151 192.107Z" fill="#A04040"/>
<path d="M400.863 204.558C401.983 205.171 403 205.885 403.916 206.6C404.832 207.314 405.747 208.131 406.663 208.947C407.579 209.763 408.393 210.784 409.003 211.703C409.41 212.213 409.614 212.825 409.919 213.335C410.021 213.642 410.123 213.948 410.123 214.254C410.123 214.56 410.021 214.866 409.716 215.07C409.919 214.56 409.919 213.948 409.512 213.438C409.207 212.927 408.902 212.519 408.495 212.009C407.681 211.09 406.867 210.274 406.053 209.457C404.221 207.926 402.491 206.396 400.863 204.558Z" fill="#000001"/>
<path d="M401.677 200.986C404.119 202.517 406.358 204.354 408.393 206.293C409.41 207.314 410.326 208.437 411.242 209.559C412.158 210.682 412.768 212.009 413.073 213.438C412.463 212.213 411.649 210.988 410.631 210.07C409.716 209.049 408.698 208.028 407.681 207.008C405.646 205.069 403.611 203.028 401.677 200.986Z" fill="#000001"/>
<path d="M402.186 197.414C406.663 200.986 410.631 204.967 414.091 209.457C411.852 207.722 409.716 205.783 407.782 203.844C405.747 201.803 403.916 199.66 402.186 197.414Z" fill="#000001"/>
<path d="M298.909 269.672C299.418 277.734 299.52 285.899 299.418 293.961C299.316 302.024 299.011 310.189 298.4 318.251C297.79 326.314 296.976 334.376 295.551 342.439C294.33 350.502 292.397 358.36 289.955 366.116C291.685 358.156 292.906 350.195 293.923 342.235L294.636 336.213L295.246 330.192C295.45 328.151 295.653 326.212 295.857 324.171C296.06 322.129 296.264 320.19 296.365 318.149L296.772 312.128L297.179 306.106C297.485 302.126 297.688 298.044 297.892 294.063C298.197 285.797 298.604 277.734 298.909 269.672Z" fill="#000001"/>
<path d="M136.719 387.447C140.653 387.447 143.841 384.248 143.841 380.303C143.841 376.357 140.653 373.159 136.719 373.159C132.785 373.159 129.596 376.357 129.596 380.303C129.596 384.248 132.785 387.447 136.719 387.447Z" fill="#FF9B85"/>
<path d="M224.123 471.134C229.798 471.134 234.399 466.519 234.399 460.826C234.399 455.134 229.798 450.519 224.123 450.519C218.447 450.519 213.846 455.134 213.846 460.826C213.846 466.519 218.447 471.134 224.123 471.134Z" fill="#FF9B85"/>
<path d="M469.138 268.243C472.228 268.243 474.734 265.729 474.734 262.63C474.734 259.53 472.228 257.016 469.138 257.016C466.047 257.016 463.542 259.53 463.542 262.63C463.542 265.729 466.047 268.243 469.138 268.243Z" fill="#FF9B85"/>
<path d="M476.26 373.158C480.194 373.158 483.383 369.96 483.383 366.014C483.383 362.069 480.194 358.87 476.26 358.87C472.327 358.87 469.138 362.069 469.138 366.014C469.138 369.96 472.327 373.158 476.26 373.158Z" fill="#FF9B85"/>
<path d="M183.931 173.023C189.607 173.023 194.208 168.407 194.208 162.715C194.208 157.022 189.607 152.407 183.931 152.407C178.255 152.407 173.654 157.022 173.654 162.715C173.654 168.407 178.255 173.023 183.931 173.023Z" fill="#FF9B85"/>
</svg>
