<svg width="88" height="88" viewBox="0 0 88 88" fill="none" xmlns="http://www.w3.org/2000/svg">
<g clip-path="url(#clip0_211_105)">
<path d="M56.0715 19.4107C53.328 10.6313 52.0476 10.0825 52.0476 10.0825C52.4134 10.997 52.5963 12.2774 52.2305 14.1065C50.9502 21.7886 44.9143 25.0808 44.9143 25.0808C44.9143 25.0808 38.6954 28.556 34.4887 25.9953L33.3913 27.0926C33.3913 27.0926 26.0751 32.214 30.6478 37.7012C30.6478 37.7012 35.2204 36.2379 40.5246 37.7012C45.646 39.1644 51.1331 34.5918 51.1331 34.5918C51.1331 34.5918 58.8152 28.1902 56.0715 19.4107Z" fill="#F2F2F2"/>
<path d="M56.6204 25.4466C56.6204 25.4466 56.4375 25.4466 56.4375 25.2637C55.523 30.7508 50.9503 34.409 50.9503 34.409C50.9503 34.409 45.6461 38.9815 40.3418 37.5183C35.2205 36.0551 30.465 37.5183 30.465 37.5183C30.465 37.5183 22.6 45.3833 29.0018 48.8585C29.0018 48.8585 36.318 50.1388 41.9881 50.1388C41.9881 50.1388 57.3521 49.4071 61.559 40.262C61.7417 40.4449 66.3145 32.9458 56.6204 25.4466Z" fill="#F56F57"/>
<path d="M61.7416 40.4448C57.5348 49.5901 42.1708 50.3216 42.1708 50.3216C36.5007 50.3216 29.1844 49.0414 29.1844 49.0414C29.1844 49.0414 20.0391 52.8824 22.5999 56.1747H65.0339C65.0339 55.9917 69.6067 47.944 61.7416 40.4448Z" fill="#F2F2F2"/>
<path d="M66.3145 55.9917L64.8513 65.6858C64.3025 69.7097 60.8273 72.6362 56.6206 72.6362H31.3794C27.3555 72.6362 23.8803 69.7097 23.1488 65.6858L21.6855 55.9917H66.3145Z" fill="#FFD15C"/>
<path d="M39.0616 2.76622C39.0616 2.76622 43.8171 11.1798 40.3419 14.655C40.3419 14.655 34.123 19.5934 34.123 24.8977C34.123 30.5678 41.6222 26.9097 41.6222 26.9097C41.6222 26.9097 52.9624 24.1662 52.9624 13.5575C52.9624 13.5575 51.3163 2.4002 43.4513 0.205296C37.7813 -0.891894 39.0616 2.76622 39.0616 2.76622Z" fill="#F56F57"/>
<path d="M57.1691 72.6362L55.8888 75.3797L50.4016 88.0002H37.5982L32.111 75.3797L30.8306 72.6362H57.1691Z" fill="#FFD15C"/>
<path d="M65.7657 53.9795H22.2341C21.1368 53.9795 20.2222 54.8939 20.2222 55.9915C20.2222 57.089 21.1366 58.0035 22.2341 58.0035H65.7657C66.8631 58.0035 67.7777 57.089 67.7777 55.9915C67.7777 54.8941 66.8631 53.9795 65.7657 53.9795Z" fill="#F8B64C"/>
<path d="M57.1691 72.6362L53.6939 80.3183L32.111 75.3797L30.8306 72.6362H57.1691Z" fill="#FCC556"/>
</g>
<defs>
<clipPath id="clip0_211_105">
<rect width="88" height="88" fill="white"/>
</clipPath>
</defs>
</svg>
