<svg width="150" height="70" viewBox="0 0 150 70" fill="none" xmlns="http://www.w3.org/2000/svg">
<g clip-path="url(#clip0_8_644)">
<path d="M30.5846 21.5875C29.0881 16.7987 28.3897 16.4994 28.3897 16.4994C28.5892 16.9982 28.689 17.6966 28.4895 18.6943C27.7911 22.8845 24.4988 24.6803 24.4988 24.6803C24.4988 24.6803 21.1067 26.5759 18.8121 25.1791L18.2135 25.7777C18.2135 25.7777 14.2229 28.5711 16.7171 31.5641C16.7171 31.5641 19.2112 30.766 22.1044 31.5641C24.8979 32.3622 27.8909 29.8681 27.8909 29.8681C27.8909 29.8681 32.0811 26.3763 30.5846 21.5875Z" fill="#F2F2F2"/>
<path d="M30.8839 24.8798C30.8839 24.8798 30.7841 24.8798 30.7841 24.78C30.2853 27.773 27.7911 29.7684 27.7911 29.7684C27.7911 29.7684 24.8979 32.2625 22.0047 31.4644C19.2112 30.6663 16.6173 31.4644 16.6173 31.4644C16.6173 31.4644 12.3273 35.7544 15.8192 37.6499C15.8192 37.6499 19.8099 38.3483 22.9027 38.3483C22.9027 38.3483 31.283 37.9492 33.5777 32.9609C33.6774 33.0607 36.1716 28.9703 30.8839 24.8798Z" fill="#F56F57"/>
<path d="M33.6774 33.0607C31.3827 38.049 23.0024 38.4481 23.0024 38.4481C19.9096 38.4481 15.9189 37.7497 15.9189 37.7497C15.9189 37.7497 10.9306 39.8448 12.3273 41.6406H35.4732C35.4732 41.5408 37.9674 37.1512 33.6774 33.0607Z" fill="#F2F2F2"/>
<path d="M36.1714 41.5408L35.3733 46.8285C35.074 49.0234 33.1784 50.6196 30.8838 50.6196H17.1159C14.9211 50.6196 13.0255 49.0234 12.6265 46.8285L11.8284 41.5408H36.1714Z" fill="#FFD15C"/>
<path d="M21.3063 12.5088C21.3063 12.5088 23.9002 17.098 22.0047 18.9936C22.0047 18.9936 18.6125 21.6872 18.6125 24.5805C18.6125 27.6732 22.703 25.6779 22.703 25.6779C22.703 25.6779 28.8886 24.1815 28.8886 18.3949C28.8886 18.3949 27.9907 12.3091 23.7007 11.1119C20.608 10.5134 21.3063 12.5088 21.3063 12.5088Z" fill="#F56F57"/>
<path d="M31.1831 50.6196L30.4848 52.1161L27.4918 59H20.5081L17.5151 52.1161L16.8167 50.6196H31.1831Z" fill="#FFD15C"/>
<path d="M35.8722 40.4434H12.1277C11.5292 40.4434 11.0303 40.9422 11.0303 41.5408C11.0303 42.1395 11.5291 42.6383 12.1277 42.6383H35.8722C36.4708 42.6383 36.9697 42.1395 36.9697 41.5408C36.9697 40.9423 36.4708 40.4434 35.8722 40.4434Z" fill="#F8B64C"/>
<path d="M31.1831 50.6196L29.2876 54.8099L17.5151 52.1161L16.8167 50.6196H31.1831Z" fill="#FCC556"/>
</g>
<path d="M66.12 52.2C62.9467 52.2 60.1867 51.6267 57.84 50.48C55.4933 49.3067 53.6933 47.6533 52.44 45.52C51.1867 43.3867 50.56 40.9067 50.56 38.08C50.56 34.16 51.2933 30.68 52.76 27.64C54.2533 24.6 56.2667 22.2533 58.8 20.6C61.3333 18.92 64.1467 18.08 67.24 18.08C70.12 18.08 72.3067 18.8267 73.8 20.32C75.2933 21.7867 76.04 23.7333 76.04 26.16C76.04 27.7867 75.7467 29.0933 75.16 30.08C74.6 31.0667 73.7867 31.56 72.72 31.56C71.9733 31.56 71.3867 31.3867 70.96 31.04C70.5333 30.6933 70.32 30.1867 70.32 29.52C70.32 29.28 70.3733 28.84 70.48 28.2C70.64 27.4 70.72 26.76 70.72 26.28C70.72 23.8533 69.4267 22.64 66.84 22.64C65.08 22.64 63.4 23.2133 61.8 24.36C60.2 25.5067 58.9067 27.2 57.92 29.44C56.9333 31.6533 56.44 34.2933 56.44 37.36C56.44 40.56 57.3333 43.04 59.12 44.8C60.9067 46.5333 63.5467 47.4 67.04 47.4C68.7733 47.4 70.52 47.1867 72.28 46.76C74.0667 46.3067 76.04 45.6267 78.2 44.72C78.6 44.56 78.9333 44.48 79.2 44.48C79.6267 44.48 79.9467 44.64 80.16 44.96C80.3733 45.28 80.48 45.6933 80.48 46.2C80.48 47.8267 79.6 49.0267 77.84 49.8C75.9467 50.6267 73.9733 51.24 71.92 51.64C69.8933 52.0133 67.96 52.2 66.12 52.2ZM97.3513 39.72C97.6979 39.72 97.9646 39.8933 98.1513 40.24C98.3379 40.5867 98.4313 41.0267 98.4313 41.56C98.4313 42.84 98.0446 43.6 97.2713 43.84C95.6713 44.4 93.9113 44.72 91.9913 44.8C91.4846 47.04 90.4846 48.84 88.9913 50.2C87.4979 51.5333 85.8046 52.2 83.9113 52.2C82.3113 52.2 80.9379 51.8133 79.7913 51.04C78.6713 50.2667 77.8179 49.24 77.2313 47.96C76.6446 46.68 76.3512 45.2933 76.3512 43.8C76.3512 41.7733 76.7379 39.9733 77.5113 38.4C78.2846 36.8 79.3513 35.56 80.7113 34.68C82.0713 33.7733 83.5779 33.32 85.2313 33.32C87.2579 33.32 88.8846 34.0267 90.1113 35.44C91.3646 36.8267 92.0979 38.5467 92.3113 40.6C93.5646 40.52 95.0579 40.2533 96.7913 39.8C97.0046 39.7467 97.1913 39.72 97.3513 39.72ZM84.2313 47.96C85.0846 47.96 85.8179 47.6133 86.4313 46.92C87.0713 46.2267 87.4979 45.2267 87.7113 43.92C86.8846 43.36 86.2446 42.6267 85.7913 41.72C85.3646 40.8133 85.1513 39.8533 85.1513 38.84C85.1513 38.4133 85.1913 37.9867 85.2713 37.56H85.0713C84.0046 37.56 83.1113 38.08 82.3913 39.12C81.6979 40.1333 81.3513 41.5733 81.3513 43.44C81.3513 44.9067 81.6313 46.0267 82.1913 46.8C82.7779 47.5733 83.4579 47.96 84.2313 47.96ZM115.398 39.72C115.745 39.72 116.011 39.8933 116.198 40.24C116.385 40.5867 116.478 41.0267 116.478 41.56C116.478 42.84 116.091 43.6 115.318 43.84C113.718 44.4 111.958 44.72 110.038 44.8C109.531 47.04 108.531 48.84 107.038 50.2C105.545 51.5333 103.851 52.2 101.958 52.2C100.358 52.2 98.9848 51.8133 97.8381 51.04C96.7181 50.2667 95.8648 49.24 95.2781 47.96C94.6915 46.68 94.3981 45.2933 94.3981 43.8C94.3981 41.7733 94.7848 39.9733 95.5581 38.4C96.3315 36.8 97.3981 35.56 98.7581 34.68C100.118 33.7733 101.625 33.32 103.278 33.32C105.305 33.32 106.931 34.0267 108.158 35.44C109.411 36.8267 110.145 38.5467 110.358 40.6C111.611 40.52 113.105 40.2533 114.838 39.8C115.051 39.7467 115.238 39.72 115.398 39.72ZM102.278 47.96C103.131 47.96 103.865 47.6133 104.478 46.92C105.118 46.2267 105.545 45.2267 105.758 43.92C104.931 43.36 104.291 42.6267 103.838 41.72C103.411 40.8133 103.198 39.8533 103.198 38.84C103.198 38.4133 103.238 37.9867 103.318 37.56H103.118C102.051 37.56 101.158 38.08 100.438 39.12C99.7448 40.1333 99.3981 41.5733 99.3981 43.44C99.3981 44.9067 99.6781 46.0267 100.238 46.8C100.825 47.5733 101.505 47.96 102.278 47.96ZM128.205 43.08C128.552 43.08 128.818 43.24 129.005 43.56C129.218 43.88 129.325 44.32 129.325 44.88C129.325 45.9467 129.072 46.7733 128.565 47.36C127.418 48.7733 126.165 49.9333 124.805 50.84C123.472 51.7467 121.952 52.2 120.245 52.2C117.898 52.2 116.152 51.1333 115.005 49C113.885 46.8667 113.325 44.1067 113.325 40.72C113.325 37.4667 113.738 33.76 114.565 29.6C115.418 25.44 116.658 21.8667 118.285 18.88C119.938 15.8933 121.898 14.4 124.165 14.4C125.445 14.4 126.445 15 127.165 16.2C127.912 17.3733 128.285 19.0667 128.285 21.28C128.285 24.4533 127.405 28.1333 125.645 32.32C123.885 36.5067 121.498 40.6533 118.485 44.76C118.672 45.8533 118.978 46.64 119.405 47.12C119.832 47.5733 120.392 47.8 121.085 47.8C122.178 47.8 123.138 47.4933 123.965 46.88C124.792 46.24 125.845 45.16 127.125 43.64C127.445 43.2667 127.805 43.08 128.205 43.08ZM123.285 18.36C122.672 18.36 121.978 19.4667 121.205 21.68C120.432 23.8933 119.752 26.64 119.165 29.92C118.578 33.2 118.258 36.3467 118.205 39.36C120.098 36.24 121.605 33.12 122.725 30C123.845 26.8533 124.405 23.9867 124.405 21.4C124.405 19.3733 124.032 18.36 123.285 18.36ZM142.052 40.8C142.799 40.8 143.172 41.36 143.172 42.48C143.172 44.5867 141.519 45.64 138.212 45.64C137.572 45.64 136.652 45.52 135.452 45.28C135.799 46.9333 136.079 48.7733 136.292 50.8C136.532 52.8 136.652 54.4533 136.652 55.76C136.652 58.64 136.185 60.84 135.252 62.36C134.319 63.88 133.092 64.64 131.572 64.64C129.652 64.64 128.279 63.28 127.452 60.56C126.652 57.84 126.252 53.7333 126.252 48.24C126.252 43.12 126.799 37.9333 127.892 32.68C129.012 27.4 130.532 23.04 132.452 19.6C134.399 16.1333 136.532 14.4 138.852 14.4C140.105 14.4 141.079 14.96 141.772 16.08C142.492 17.2 142.852 18.7067 142.852 20.6C142.852 26.8667 139.105 33.6933 131.612 41.08C131.345 43.6933 131.212 45.9867 131.212 47.96C131.212 50.7067 131.305 53.52 131.492 56.4C131.679 59.3067 131.985 60.76 132.412 60.76C133.212 60.76 133.612 59.3733 133.612 56.6C133.612 54.52 133.465 52.5067 133.172 50.56C132.905 48.6133 132.532 46.56 132.052 44.4C132.025 44.0533 132.132 43.6133 132.372 43.08C132.639 42.5467 132.959 42.08 133.332 41.68C133.705 41.28 134.039 41.08 134.332 41.08C134.865 41.08 135.505 41.1067 136.252 41.16C136.492 41.1867 136.772 41.2 137.092 41.2C138.159 41.2 139.345 41.1067 140.652 40.92C140.865 40.8933 141.092 40.8667 141.332 40.84C141.572 40.8133 141.812 40.8 142.052 40.8ZM138.012 18.36C137.532 18.36 136.932 19.1733 136.212 20.8C135.519 22.4267 134.825 24.5867 134.132 27.28C133.439 29.9467 132.839 32.7733 132.332 35.76C134.465 33.3333 136.105 30.8133 137.252 28.2C138.399 25.56 138.985 23.0933 139.012 20.8C139.012 19.1733 138.679 18.36 138.012 18.36ZM145.674 30.72C144.554 30.72 143.714 30.4667 143.154 29.96C142.594 29.4267 142.314 28.6933 142.314 27.76C142.314 26.8267 142.674 26.0533 143.394 25.44C144.141 24.8 145.061 24.48 146.154 24.48C147.141 24.48 147.941 24.72 148.554 25.2C149.168 25.68 149.474 26.36 149.474 27.24C149.474 28.3067 149.128 29.16 148.434 29.8C147.741 30.4133 146.821 30.72 145.674 30.72ZM141.834 52.2C140.981 52.2 140.394 52.0267 140.074 51.68C139.754 51.3333 139.594 50.7867 139.594 50.04C139.594 49.8267 139.621 49.4533 139.674 48.92C140.101 44.04 140.808 39.6 141.794 35.6C142.008 34.7733 142.354 34.2 142.834 33.88C143.341 33.5333 144.141 33.36 145.234 33.36C146.381 33.36 146.954 33.8267 146.954 34.76C146.954 34.8933 146.928 35.1467 146.874 35.52C145.674 41.2267 144.954 46.0133 144.714 49.88C144.661 50.7333 144.408 51.3333 143.954 51.68C143.501 52.0267 142.794 52.2 141.834 52.2Z" fill="#F56F57"/>
<defs>
<clipPath id="clip0_8_644">
<rect width="48" height="48" fill="white" transform="translate(0 11)"/>
</clipPath>
</defs>
</svg>
